name GIL12_static.mot
datacolumns 141
datarows 4
range 0.96666664 0.99166667
endheader

                time	           pelvis_tx	           pelvis_ty	           pelvis_tz	         pelvis_tilt	         pelvis_list	     pelvis_rotation	       hip_flexion_r	     hip_adduction_r	      hip_rotation_r	        knee_angle_r	       ankle_angle_r	    subtalar_angle_r	         mtp_angle_r	       hip_flexion_l	     hip_adduction_l	      hip_rotation_l	        knee_angle_l	       ankle_angle_l	    subtalar_angle_l	         mtp_angle_l	    lumbar_extension	      lumbar_bending	     lumbar_rotation	    ground_marker_px	    ground_marker_py	    ground_marker_pz	    ground_marker_px	    ground_marker_py	    ground_marker_pz	    ground_marker_px	    ground_marker_py	    ground_marker_pz	    ground_marker_px	    ground_marker_py	    ground_marker_pz	    ground_marker_px	    ground_marker_py	    ground_marker_pz	    ground_marker_px	    ground_marker_py	    ground_marker_pz	    ground_marker_px	    ground_marker_py	    ground_marker_pz	    ground_marker_px	    ground_marker_py	    ground_marker_pz	    ground_marker_px	    ground_marker_py	    ground_marker_pz	    ground_marker_px	    ground_marker_py	    ground_marker_pz	    ground_marker_px	    ground_marker_py	    ground_marker_pz	    ground_marker_px	    ground_marker_py	    ground_marker_pz	    ground_marker_px	    ground_marker_py	    ground_marker_pz	    ground_marker_px	    ground_marker_py	    ground_marker_pz	    ground_marker_px	    ground_marker_py	    ground_marker_pz	    ground_marker_px	    ground_marker_py	    ground_marker_pz	    ground_marker_px	    ground_marker_py	    ground_marker_pz	    ground_marker_px	    ground_marker_py	    ground_marker_pz	    ground_marker_px	    ground_marker_py	    ground_marker_pz	    ground_marker_px	    ground_marker_py	    ground_marker_pz	    ground_marker_px	    ground_marker_py	    ground_marker_pz	    ground_marker_px	    ground_marker_py	    ground_marker_pz	    ground_marker_px	    ground_marker_py	    ground_marker_pz	    ground_marker_px	    ground_marker_py	    ground_marker_pz	    ground_marker_px	    ground_marker_py	    ground_marker_pz	    ground_marker_px	    ground_marker_py	    ground_marker_pz	    ground_marker_px	    ground_marker_py	    ground_marker_pz	    ground_marker_px	    ground_marker_py	    ground_marker_pz	    ground_marker_px	    ground_marker_py	    ground_marker_pz	    ground_marker_px	    ground_marker_py	    ground_marker_pz	    ground_marker_px	    ground_marker_py	    ground_marker_pz	    ground_marker_px	    ground_marker_py	    ground_marker_pz	    ground_marker_px	    ground_marker_py	    ground_marker_pz	    ground_marker_px	    ground_marker_py	    ground_marker_pz	    ground_marker_px	    ground_marker_py	    ground_marker_pz	    ground_marker_px	    ground_marker_py	    ground_marker_pz	    ground_marker_px	    ground_marker_py	    ground_marker_pz	    ground_marker_px	    ground_marker_py	    ground_marker_pz	    ground_marker_px	    ground_marker_py	    ground_marker_pz	
          0.96666664	          1.50124407	          0.68442476	         -0.34153229	        -16.47945023	          0.70951509	         -0.42972493	         10.90921402	         -3.91859031	         -0.30109596	          1.17659664	          3.32923579	          0.00000000	          0.00000000	         13.57125473	         -1.21136999	         -8.42790699	         -1.00246835	          3.02326727	          0.00000000	          0.00000000	         23.95601463	         -1.56530428	         -2.14257097	          1.42463470	          0.63482916	         -0.33816007	          1.43684483	          0.64221799	         -0.28391701	          1.43831265	          0.64307630	         -0.40134966	          1.40733290	          0.34209672	         -0.26583126	          1.42310917	          0.34227303	         -0.41010889	          1.38495445	          0.05451847	         -0.24456336	          1.40218341	          0.05638095	         -0.42875233	          1.50124407	          0.68442476	         -0.34153229	          1.50014794	          0.68378377	         -0.25383291	          1.50234020	          0.68506569	         -0.42923170	          1.37784302	          0.75169533	         -0.29853067	          1.37720835	          0.75137323	         -0.38359493	          1.40682387	          0.34491342	         -0.21992040	          1.41672778	          0.34398001	         -0.45765215	          1.39978325	          0.34193116	         -0.31610212	          1.41993117	          0.33977905	         -0.36446536	          1.37883854	          0.05742078	         -0.21175449	          1.38977015	          0.05923934	         -0.45865193	          1.39278841	          0.05371422	         -0.27099010	          1.41251755	          0.05262345	         -0.39773229	          1.34645879	          0.03835982	         -0.25956339	          1.35232925	          0.03868951	         -0.41963273	          1.44987988	          1.02004158	         -0.33266091	          1.54067755	          0.91077590	         -0.33138561	          1.36966753	          1.03842354	         -0.34029496	          1.46650803	          1.01408076	         -0.29578027	          1.47115076	          1.01280701	         -0.38281852	          1.47571826	          0.04121539	         -0.22841911	          1.48878002	          0.03888592	         -0.45831531	          1.53379130	          0.42277691	         -0.29519218	          1.47688365	          0.41962388	         -0.51171476	          1.46352863	          0.48103547	         -0.24675466	          1.47513640	          0.47961026	         -0.42959803	          1.44491529	          0.39408290	         -0.24514388	          1.47223568	          0.39528328	         -0.41330299	          1.40732789	          0.14675076	         -0.14886867	          1.50519812	          0.15998125	         -0.41026101	          1.39865506	          0.20128927	         -0.21462215	          1.44277847	          0.21860522	         -0.42126969	
          0.97500002	          1.50137830	          0.68455541	         -0.34141266	        -16.38364220	          0.70462728	         -0.52277845	         10.81084442	         -3.83622956	         -0.23880881	          1.17082250	          3.33815193	          0.00000000	          0.00000000	         13.53692436	         -1.23670018	         -8.54634476	         -1.16990674	          3.12679052	          0.00000000	          0.00000000	         23.90398979	         -1.48321819	         -2.09169769	          1.42488170	          0.63481653	         -0.33804905	          1.43696916	          0.64229119	         -0.28385088	          1.43859839	          0.64305246	         -0.40128210	          1.40741193	          0.34212166	         -0.26598915	          1.42372608	          0.34223938	         -0.40994221	          1.38495791	          0.05452909	         -0.24462169	          1.40224004	          0.05637423	         -0.42865652	          1.50137830	          0.68455541	         -0.34141266	          1.50016212	          0.68398720	         -0.25375381	          1.50259459	          0.68512368	         -0.42907149	          1.37785578	          0.75163138	         -0.29854006	          1.37732267	          0.75124389	         -0.38361767	          1.40688336	          0.34490576	         -0.22007653	          1.41731167	          0.34392515	         -0.45748177	          1.39987254	          0.34205273	         -0.31636369	          1.42072988	          0.33968833	         -0.36435401	          1.37883103	          0.05744483	         -0.21181604	          1.38980973	          0.05926525	         -0.45854598	          1.39276505	          0.05371509	         -0.27106714	          1.41257060	          0.05261058	         -0.39765885	          1.34647024	          0.03835104	         -0.25962433	          1.35236120	          0.03867939	         -0.41955602	          1.44982278	          1.02015531	         -0.33274090	          1.54070127	          0.91095668	         -0.33148828	          1.36964238	          1.03847027	         -0.34032592	          1.46644378	          1.01418996	         -0.29585102	          1.47111464	          1.01295960	         -0.38290229	          1.47572207	          0.04122294	         -0.22846295	          1.48877811	          0.03888778	         -0.45825905	          1.53391314	          0.42277223	         -0.29518870	          1.47735620	          0.41956580	         -0.51155925	          1.46362674	          0.48104009	         -0.24681020	          1.47557902	          0.47961512	         -0.42955944	          1.44494367	          0.39411995	         -0.24529697	          1.47286904	          0.39530346	         -0.41325533	          1.40730166	          0.14677545	         -0.14894499	          1.50545657	          0.15981412	         -0.41022435	          1.39866698	          0.20131132	         -0.21473676	          1.44314265	          0.21855889	         -0.42121801	
          0.98333335	          1.50150812	          0.68469429	         -0.34130609	        -16.30397224	          0.71003169	         -0.61420971	         10.74271011	         -3.76897502	         -0.19091639	          1.14560056	          3.35233331	          0.00000000	          0.00000000	         13.51645088	         -1.24872172	         -8.64715004	         -1.33068883	          3.22570944	          0.00000000	          0.00000000	         23.86558533	         -1.40572524	         -2.01789331	          1.42514765	          0.63481402	         -0.33795902	          1.43707335	          0.64238048	         -0.28380919	          1.43887198	          0.64306486	         -0.40123838	          1.40754163	          0.34212947	         -0.26614285	          1.42431653	          0.34220347	         -0.40978241	          1.38498330	          0.05453308	         -0.24467337	          1.40229213	          0.05636066	         -0.42857373	          1.50150812	          0.68469429	         -0.34130609	          1.50016630	          0.68418372	         -0.25369433	          1.50284994	          0.68520492	         -0.42891783	          1.37785792	          0.75155711	         -0.29855165	          1.37756836	          0.75116110	         -0.38363579	          1.40697920	          0.34488630	         -0.22022897	          1.41788602	          0.34386459	         -0.45732072	          1.40004349	          0.34213504	         -0.31648311	          1.42126775	          0.33966830	         -0.36425936	          1.37883520	          0.05746391	         -0.21187307	          1.38985598	          0.05928344	         -0.45845765	          1.39273274	          0.05369512	         -0.27114061	          1.41261840	          0.05256527	         -0.39759099	          1.34649050	          0.03833942	         -0.25968763	          1.35239840	          0.03866660	         -0.41949290	          1.44978952	          1.02027225	         -0.33279952	          1.54074407	          0.91113609	         -0.33160275	          1.36961198	          1.03853142	         -0.34033343	          1.46641505	          1.01430023	         -0.29590672	          1.47108591	          1.01311624	         -0.38297108	          1.47573411	          0.04122434	         -0.22850475	          1.48878348	          0.03888455	         -0.45820999	          1.53403664	          0.42274186	         -0.29514423	          1.47785652	          0.41948232	         -0.51136494	          1.46379924	          0.48106208	         -0.24684444	          1.47604263	          0.47962201	         -0.42948297	          1.44508255	          0.39418110	         -0.24536730	          1.47337937	          0.39530000	         -0.41316336	          1.40727746	          0.14678872	         -0.14901417	          1.50569606	          0.15964837	         -0.41016951	          1.39866042	          0.20130540	         -0.21483532	          1.44352996	          0.21852548	         -0.42111820	
          0.99166667	          1.50164723	          0.68484187	         -0.34119982	        -16.23576164	          0.72600991	         -0.70293081	         10.69432449	         -3.71693015	         -0.15842338	          1.10866845	          3.37025332	          0.00000000	          0.00000000	         13.49814796	         -1.24960005	         -8.72093296	         -1.47537112	          3.31708264	          0.00000000	          0.00000000	         23.84269333	         -1.35262084	         -1.92645550	          1.42544150	          0.63482094	         -0.33788735	          1.43717611	          0.64248067	         -0.28377870	          1.43914950	          0.64310998	         -0.40120539	          1.40771019	          0.34212306	         -0.26628280	          1.42486000	          0.34216654	         -0.40963224	          1.38502860	          0.05452923	         -0.24472035	          1.40233707	          0.05634099	         -0.42850110	          1.50164723	          0.68484187	         -0.34119982	          1.50017571	          0.68437260	         -0.25363284	          1.50311875	          0.68531114	         -0.42876682	          1.37785292	          0.75147319	         -0.29856619	          1.37793660	          0.75111783	         -0.38364959	          1.40710032	          0.34485739	         -0.22036819	          1.41843796	          0.34380266	         -0.45717254	          1.40027750	          0.34213820	         -0.31647503	          1.42162716	          0.33967775	         -0.36411196	          1.37884903	          0.05747527	         -0.21192732	          1.38991022	          0.05929307	         -0.45838603	          1.39272749	          0.05365970	         -0.27119488	          1.41265047	          0.05250509	         -0.39752993	          1.34652174	          0.03832340	         -0.25975296	          1.35243881	          0.03865359	         -0.41944340	          1.44977725	          1.02039325	         -0.33283457	          1.54081416	          0.91132551	         -0.33168086	          1.36959362	          1.03859103	         -0.34032413	          1.46641493	          1.01442575	         -0.29594338	          1.47106826	          1.01326394	         -0.38301545	          1.47575366	          0.04121678	         -0.22853981	          1.48879826	          0.03887676	         -0.45816463	          1.53407943	          0.42263022	         -0.29502746	          1.47837710	          0.41937459	         -0.51113713	          1.46400666	          0.48108730	         -0.24686092	          1.47652185	          0.47960877	         -0.42933458	          1.44529378	          0.39421046	         -0.24536218	          1.47380567	          0.39524981	         -0.41298306	          1.40725386	          0.14679144	         -0.14907335	          1.50590718	          0.15947990	         -0.41008085	          1.39871836	          0.20129167	         -0.21491989	          1.44390702	          0.21849193	         -0.42098987	
